<?xml version="1.0" encoding="UTF-8" standalone="no"?>
<!DOCTYPE svg PUBLIC "-//W3C//DTD SVG 1.1//EN" "http://www.w3.org/Graphics/SVG/1.1/DTD/svg11.dtd">
<svg version="1.1" xmlns="http://www.w3.org/2000/svg" xmlns:xlink="http://www.w3.org/1999/xlink" preserveAspectRatio="xMidYMid meet" viewBox="0 0 640 640" width="640" height="640"><defs><path d="M230.79 174C294.06 237.27 329.21 272.42 336.24 279.45C351.92 295.14 351.92 320.55 336.24 336.24C328.4 344.08 318.13 348 307.86 348C297.57 348 287.3 344.08 279.47 336.24C272.43 329.21 237.28 294.06 174 230.78C110.73 294.06 75.57 329.21 68.54 336.24C60.71 344.08 50.43 348 40.15 348C29.88 348 19.61 344.08 11.77 336.24C-3.91 320.56 -3.91 295.14 11.77 279.44C18.8 272.41 53.94 237.27 117.21 174C53.94 110.73 18.79 75.58 11.76 68.55C-3.92 52.86 -3.92 27.44 11.76 11.76C27.44 -3.92 52.85 -3.92 68.54 11.76C75.57 18.79 110.72 53.94 174 117.21C237.27 53.94 272.42 18.79 279.45 11.76C295.14 -3.92 320.55 -3.92 336.23 11.76C351.92 27.44 351.92 52.86 336.24 68.55C322.18 82.61 287.03 117.76 230.79 174Z" id="bc5jsJHLD"></path></defs><g><g><g><use xlink:href="#bc5jsJHLD" opacity="1" fill="#808080" fill-opacity="1"></use><g><use xlink:href="#bc5jsJHLD" opacity="1" fill-opacity="0" stroke="#000000" stroke-width="1" stroke-opacity="0"></use></g></g></g></g></svg>