<?xml version="1.0" encoding="UTF-8" standalone="no"?>
<!DOCTYPE svg PUBLIC "-//W3C//DTD SVG 1.1//EN" "http://www.w3.org/Graphics/SVG/1.1/DTD/svg11.dtd">
<svg version="1.1" xmlns="http://www.w3.org/2000/svg" xmlns:xlink="http://www.w3.org/1999/xlink" preserveAspectRatio="xMidYMid meet" viewBox="0 0 640 640" width="640" height="640"><defs><path d="M0 548.57C0 598.98 41.02 640 91.43 640C141.84 640 182.86 598.98 182.86 548.57C182.86 498.16 141.84 457.14 91.43 457.14C41.02 457.14 0 498.16 0 548.57Z" id="a1Tl6oaGq3"></path><path d="M228.57 548.57C228.57 598.98 269.59 640 320 640C370.41 640 411.43 598.98 411.43 548.57C411.43 498.16 370.41 457.14 320 457.14C269.59 457.14 228.57 498.16 228.57 548.57Z" id="dRlEw8f0J"></path><path d="M457.14 548.57C457.14 598.98 498.16 640 548.57 640C598.98 640 640 598.98 640 548.57C640 498.16 598.98 457.14 548.57 457.14C498.16 457.14 457.14 498.16 457.14 548.57Z" id="b1GZSGcBQC"></path><path d="M0 320C0 370.41 41.02 411.43 91.43 411.43C141.84 411.43 182.86 370.41 182.86 320C182.86 269.59 141.84 228.57 91.43 228.57C41.02 228.57 0 269.59 0 320Z" id="fkqoTDgtH"></path><path d="M228.57 320C228.57 370.41 269.59 411.43 320 411.43C370.41 411.43 411.43 370.41 411.43 320C411.43 269.59 370.41 228.57 320 228.57C269.59 228.57 228.57 269.59 228.57 320Z" id="beHeewrRM"></path><path d="M457.14 320C457.14 370.41 498.16 411.43 548.57 411.43C598.98 411.43 640 370.41 640 320C640 269.59 598.98 228.57 548.57 228.57C498.16 228.57 457.14 269.59 457.14 320Z" id="e1j8KioPp"></path><path d="M0 91.43C0 141.84 41.02 182.86 91.43 182.86C141.84 182.86 182.86 141.84 182.86 91.43C182.86 41.02 141.84 0 91.43 0C41.02 0 0 41.02 0 91.43Z" id="g12g5qAUUP"></path><path d="M228.57 91.43C228.57 141.84 269.59 182.86 320 182.86C370.41 182.86 411.43 141.84 411.43 91.43C411.43 41.02 370.41 0 320 0C269.59 0 228.57 41.02 228.57 91.43Z" id="f1RwLvIgT"></path><path d="M640 91.43C640 41.02 598.98 0 548.57 0C498.16 0 457.14 41.02 457.14 91.43C457.14 141.84 498.16 182.86 548.57 182.86C598.98 182.86 640 141.84 640 91.43Z" id="c5stI1lIir"></path></defs><g><g><g><use xlink:href="#a1Tl6oaGq3" opacity="1" fill="#808080" fill-opacity="1"></use><g><use xlink:href="#a1Tl6oaGq3" opacity="1" fill-opacity="0" stroke="#000000" stroke-width="1" stroke-opacity="0"></use></g></g><g><use xlink:href="#dRlEw8f0J" opacity="1" fill="#808080" fill-opacity="1"></use><g><use xlink:href="#dRlEw8f0J" opacity="1" fill-opacity="0" stroke="#000000" stroke-width="1" stroke-opacity="0"></use></g></g><g><use xlink:href="#b1GZSGcBQC" opacity="1" fill="#808080" fill-opacity="1"></use><g><use xlink:href="#b1GZSGcBQC" opacity="1" fill-opacity="0" stroke="#000000" stroke-width="1" stroke-opacity="0"></use></g></g><g><use xlink:href="#fkqoTDgtH" opacity="1" fill="#808080" fill-opacity="1"></use><g><use xlink:href="#fkqoTDgtH" opacity="1" fill-opacity="0" stroke="#000000" stroke-width="1" stroke-opacity="0"></use></g></g><g><use xlink:href="#beHeewrRM" opacity="1" fill="#808080" fill-opacity="1"></use><g><use xlink:href="#beHeewrRM" opacity="1" fill-opacity="0" stroke="#000000" stroke-width="1" stroke-opacity="0"></use></g></g><g><use xlink:href="#e1j8KioPp" opacity="1" fill="#808080" fill-opacity="1"></use><g><use xlink:href="#e1j8KioPp" opacity="1" fill-opacity="0" stroke="#000000" stroke-width="1" stroke-opacity="0"></use></g></g><g><use xlink:href="#g12g5qAUUP" opacity="1" fill="#808080" fill-opacity="1"></use><g><use xlink:href="#g12g5qAUUP" opacity="1" fill-opacity="0" stroke="#000000" stroke-width="1" stroke-opacity="0"></use></g></g><g><use xlink:href="#f1RwLvIgT" opacity="1" fill="#808080" fill-opacity="1"></use><g><use xlink:href="#f1RwLvIgT" opacity="1" fill-opacity="0" stroke="#000000" stroke-width="1" stroke-opacity="0"></use></g></g><g><use xlink:href="#c5stI1lIir" opacity="1" fill="#808080" fill-opacity="1"></use><g><use xlink:href="#c5stI1lIir" opacity="1" fill-opacity="0" stroke="#000000" stroke-width="1" stroke-opacity="0"></use></g></g></g></g></svg>