<svg height="682pt" viewBox="-21 -112 682.66669 682" width="682pt" xmlns="http://www.w3.org/2000/svg"><path d="m606.765625 314.488281-48.804687-240.15625c-9.4375-46.40625-50.648438-80.082031-98-80.082031h-279.921876c-47.347656 0-88.5625 33.675781-97.992187 80.082031l-48.8125 240.15625c-20.03125 13.484375-33.234375 36.359375-33.234375 62.261719v75h640v-75c0-25.902344-13.203125-48.777344-33.234375-62.261719zm-475.726563-230.199219c4.71875-23.199218 25.324219-40.039062 49-40.039062h279.921876c23.675781 0 44.28125 16.839844 49 40.039062l44.199218 217.460938h-466.320312zm458.960938 317.460938h-540v-25c0-13.785156 11.214844-25 25-25h490c13.785156 0 25 11.214844 25 25zm-301.25-225h62.5v62.5h-62.5zm125 0h62.5v62.5h-62.5zm0-62.5v62.5h-62.5v-62.5zm-250 62.5h62.5v62.5h-62.5zm125-62.5v62.5h-62.5v-62.5zm0 0"/></svg>